<svg xmlns="http://www.w3.org/2000/svg" width="443" height="101" viewBox="0 0 443 101">
  <defs>
    <style>
      .cls-1 {
        fill: #ede6df;
        fill-rule: evenodd;
      }
    </style>
  </defs>
  <path id="Прямоугольник_5" data-name="Прямоугольник 5" class="cls-1" d="M1086.36,7898.81h-4.35v15.03h-4.67v-33.96h9.02c7.56,0,12.64,3.81,12.64,9.47S1093.92,7898.81,1086.36,7898.81Zm-0.69-18.2h-3.66v17.47h3.66c5,0,8.34-3.53,8.34-8.73C1094.01,7884.09,1090.67,7880.61,1085.67,7880.61Zm-56.46,59.97h-1.3l-1.57,3.18h-0.64l1.65-3.23a1.84,1.84,0,0,1-1.53-1.88v-0.41a1.92,1.92,0,0,1,2.1-1.94h1.9v7.46h-0.61v-3.18Zm0-3.77h-1.28a1.379,1.379,0,0,0-1.51,1.39v0.49a1.373,1.373,0,0,0,1.51,1.39h1.28v-3.27Zm14.47-56.93h17.59v0.73h-12.92v14.89h10.81v0.73h-10.81v16.89h13.24v0.72h-17.91v-33.96Zm-38.09,62.02h-2.81l-0.54,1.86h-0.62l2.24-7.46h0.65l2.25,7.46h-0.64Zm-1.41-4.82-1.25,4.3h2.5Zm-7.258,6.68h-2v-7.46h1.767c1.272,0,2.1.68,2.1,1.65v0.46a1.566,1.566,0,0,1-1.034,1.46,1.737,1.737,0,0,1,1.272,1.67v0.42A1.869,1.869,0,0,1,996.922,7943.76Zm1.261-5.3v-0.49a1.3,1.3,0,0,0-1.519-1.16h-1.132v2.84h1.132A1.3,1.3,0,0,0,998.183,7938.46Zm0.237,3.02a1.349,1.349,0,0,0-1.52-1.32h-1.368v3.09H996.9a1.337,1.337,0,0,0,1.52-1.31v-0.46Zm11.61-61.6h17.58v0.73H1014.7v14.89h10.8v0.73h-10.8v16.89h13.23v0.72h-17.9v-33.96Zm-33.579,56.93h-1.983v6.95h-0.6v-6.95h-1.973v-0.51h4.559v0.51Zm-9.633,7.02a1.965,1.965,0,0,1-2.155-1.93v-3.73a2.161,2.161,0,0,1,4.3,0v0.38h-0.6v-0.43a1.55,1.55,0,0,0-3.082,0v3.82a1.55,1.55,0,0,0,3.082-.01v-0.41h0.6v0.38A1.962,1.962,0,0,1,966.818,7943.83Zm-7.607-3.25h-1.336v3.18h-0.614v-7.46h1.95a1.921,1.921,0,0,1,2.1,1.94v0.41A1.914,1.914,0,0,1,959.211,7940.58Zm1.5-2.38a1.375,1.375,0,0,0-1.509-1.39h-1.325v3.27H959.2a1.369,1.369,0,0,0,1.509-1.39v-0.49Zm16.529-58.32h4.671v33.24h13.464v0.72H977.238v-33.96Zm-51.789,8.92c0,5.26-4.58,8.83-11.54,9.06l14.242,15.98h-5.5l-14.1-15.98h-0.092v15.98h-4.671v-33.96h9.388C920.549,7879.88,925.449,7883.46,925.449,7888.8Zm-16.99-8.19v16.52h4.03c4.763,0,7.968-3.35,7.968-8.33,0-4.93-3.205-8.19-7.968-8.19h-4.03Zm-38,57.63v0.41a1.914,1.914,0,0,1-2.1,1.93h-1.336v3.18H866.41v-7.46h1.95A1.921,1.921,0,0,1,870.462,7938.24Zm-3.438-1.43v3.27h1.326a1.368,1.368,0,0,0,1.508-1.39v-0.49a1.374,1.374,0,0,0-1.508-1.39h-1.326Zm-6.4,7.02a1.965,1.965,0,0,1-2.155-1.93v-3.73a2.161,2.161,0,0,1,4.3,0v3.73A1.962,1.962,0,0,1,860.624,7943.83Zm1.542-5.71a1.551,1.551,0,0,0-3.083,0v3.82a1.55,1.55,0,0,0,3.083-.01v-3.81Zm-8.556,5.64h-0.6v-6.95h-1.973v-0.51h4.559v0.51H853.61v6.95Zm16.064-29.47c-10.579,0-17.632-6.97-17.632-17.43s7.053-17.43,17.632-17.43a18.008,18.008,0,0,1,12.363,4.36c5.469,4.88,5.314,14.1,5.314,13.07C887.351,7907.32,880.3,7914.29,869.674,7914.29Zm0-34.13c-7.6,0-12.64,6.7-12.64,16.7s5.038,16.71,12.64,16.71,12.685-6.7,12.685-16.71S877.276,7880.16,869.674,7880.16Zm-52.751,56.14,2.252,7.46h-0.636L818,7941.9h-2.8l-0.539,1.86h-0.625l2.242-7.46h0.647Zm0.926,5.08-1.25-4.3-1.25,4.3h2.5Zm-7.445-4.57h-2.586v0.47c0,6.02-.28,6.55-1.757,6.55h-0.086v-0.51h0.086c0.873,0,1.186-.25,1.186-6.04v-0.98h3.761v7.46h-0.6v-6.95Zm8.716-22.97h-11.5v-33.96h11.5c11.082,0,18.547,6.79,18.547,16.98S830.2,7913.84,819.12,7913.84Zm-0.688-33.23H812.3v32.51h6.136c8.519,0,14.243-6.52,14.243-16.26S826.951,7880.61,818.432,7880.61Zm7.3,56.2h-2.921v2.62h1.39a1.9,1.9,0,0,1,2.08,1.94v0.45a1.9,1.9,0,0,1-2.08,1.94h-2v-7.46h3.535v0.51Zm-2.921,6.44h1.38a1.362,1.362,0,0,0,1.487-1.39v-0.53a1.355,1.355,0,0,0-1.487-1.38h-1.38v3.3Zm8.986-7.02a1.969,1.969,0,0,1,2.145,1.94v3.73a2.163,2.163,0,0,1-4.3,0v-3.73A1.972,1.972,0,0,1,831.8,7936.23Zm-1.541,5.71a1.55,1.55,0,0,0,3.082-.01v-3.81a1.55,1.55,0,0,0-3.082,0v3.82Zm11.379-3.7v0.41a1.914,1.914,0,0,1-2.1,1.93H838.2v3.18h-0.614v-7.46h1.95A1.921,1.921,0,0,1,841.64,7938.24Zm-3.438-1.43v3.27h1.326a1.368,1.368,0,0,0,1.508-1.39v-0.49a1.374,1.374,0,0,0-1.508-1.39H838.2Zm8.6-.51,2.253,7.46h-0.636l-0.539-1.86h-2.8l-0.539,1.86h-0.625l2.242-7.46H846.8Zm0.927,5.08-1.25-4.3-1.25,4.3h2.5Zm26.785,1.13,3.2-6.21h0.528v7.46h-0.614v-6.22l-3.19,6.22H873.9v-7.46h0.614v6.21Zm7.359-3.86v-0.41a1.921,1.921,0,0,1,2.1-1.94h1.9v7.46h-0.6v-3.18h-1.3l-1.574,3.18h-0.635l1.649-3.23A1.842,1.842,0,0,1,881.871,7938.65Zm2.113,1.43h1.282v-3.27h-1.282a1.375,1.375,0,0,0-1.509,1.39v0.49A1.369,1.369,0,0,0,883.984,7940.08Zm11.819-3.85a1.969,1.969,0,0,1,2.145,1.94v0.38h-0.6v-0.43a1.55,1.55,0,0,0-3.082,0v3.82a1.55,1.55,0,0,0,3.082-.01v-0.41h0.6v0.38a2.163,2.163,0,0,1-4.3,0v-3.73A1.972,1.972,0,0,1,895.8,7936.23Zm6.292,3.57h3.115v-3.5H905.8v7.46H905.21v-3.45H902.1v3.45h-0.614v-7.46H902.1v3.5Zm38.1-30.99a12,12,0,0,0,9.068,4.35c4.35,0,7.373-2.76,7.373-7.02,0-9.5-15.479-7.69-15.479-18.15,0-5.3,3.892-8.56,9.3-8.56a13.081,13.081,0,0,1,9.343,3.8l-0.367.41a11.5,11.5,0,0,0-7.51-3.08c-3.618,0-6.137,2.4-6.137,5.93,0,8.88,15.525,7.2,15.525,18.25,0,6.07-4.717,9.55-10.67,9.55a13.968,13.968,0,0,1-10.9-4.98Zm-28.464,27.49,2.252,7.46h-0.635l-0.54-1.86H910l-0.539,1.86H908.84l2.242-7.46h0.646Zm0.927,5.08-1.25-4.3-1.251,4.3h2.5Zm9.125,1.13,3.2-6.21h0.528v7.46H924.9v-6.22l-3.19,6.22h-0.539v-7.46h0.614v6.21Zm15.15-5.7h-2.921v2.62H935.4a1.9,1.9,0,0,1,2.079,1.94v0.45a1.9,1.9,0,0,1-2.079,1.94h-2v-7.46h3.535v0.51Zm-2.921,6.44h1.38a1.362,1.362,0,0,0,1.487-1.39v-0.53a1.355,1.355,0,0,0-1.487-1.38h-1.38v3.3Zm8.987-7.02a1.969,1.969,0,0,1,2.144,1.94v3.73a2.163,2.163,0,0,1-4.3,0v-3.73A1.973,1.973,0,0,1,943,7936.23Zm-1.541,5.71a1.55,1.55,0,0,0,3.082-.01v-3.81a1.55,1.55,0,0,0-3.082,0v3.82Zm7.973-4.66v-0.98h3.729v6.95h0.97v2.08h-0.6v-1.57H948.6v1.57H948v-2.08h0.678C949.04,7942.84,949.428,7941.97,949.428,7937.28Zm3.125,5.97v-6.44H950v0.47c0,3.96-.205,5.38-0.744,5.97h3.3Zm30.891-5.3v0.46a1.567,1.567,0,0,1-1.035,1.46,1.737,1.737,0,0,1,1.272,1.67v0.42a1.869,1.869,0,0,1-2.1,1.8h-2v-7.46h1.767C982.614,7936.3,983.444,7936.98,983.444,7937.95Zm-3.255,5.3h1.369a1.337,1.337,0,0,0,1.519-1.31v-0.46a1.349,1.349,0,0,0-1.519-1.32h-1.369v3.09Zm0-6.44v2.84h1.132a1.3,1.3,0,0,0,1.519-1.19v-0.49a1.3,1.3,0,0,0-1.519-1.16h-1.132Zm8.943-.58a1.969,1.969,0,0,1,2.145,1.94v3.73a2.163,2.163,0,0,1-4.3,0v-3.73A1.972,1.972,0,0,1,989.132,7936.23Zm-1.541,5.71a1.55,1.55,0,0,0,3.082-.01v-3.81a1.55,1.55,0,0,0-3.082,0v3.82Zm22.809-2.14h3.12v-3.5h0.59v7.46h-0.59v-3.45h-3.12v3.45h-0.61v-7.46h0.61v3.5Zm8.06,2.71,3.2-6.21h0.53v7.46h-0.62v-6.22l-3.19,6.22h-0.53v-7.46h0.61v6.21Zm-292.155-65.4a35.947,35.947,0,1,1-36.358,35.95A36.159,36.159,0,0,1,726.305,7877.11Zm0,0.52a35.432,35.432,0,1,1-35.843,35.43A35.637,35.637,0,0,1,726.305,7877.63Zm-4.735,71.01a36.78,36.78,0,0,1-22.26-11.78,3.714,3.714,0,0,0,1.379-1.22,35.209,35.209,0,0,0,46.805,4.74,34.032,34.032,0,0,0,12.657-18.79,27.672,27.672,0,0,1-41.194-2.94,26.5,26.5,0,0,1,5.214-37.63,27.084,27.084,0,0,1,3.229-2.06,34.842,34.842,0,0,0-21.891,6.78,34.01,34.01,0,0,0-10.424,12.61,33.577,33.577,0,0,0,1.723,32.08,3.8,3.8,0,0,0-1.72.73,35.387,35.387,0,0,1,9.3-46.88,36.216,36.216,0,0,1,12.639-6.01,37.134,37.134,0,0,1,14.049-.84,0.944,0.944,0,0,1,.807.8,0.92,0.92,0,0,1-.579.97,25.009,25.009,0,0,0-13.655,12.54,24.719,24.719,0,0,0,2.795,25.81,25.811,25.811,0,0,0,35.69,5.05,25.089,25.089,0,0,0,4.871-4.75,0.948,0.948,0,0,1,1.1-.29,0.927,0.927,0,0,1,.56.99,35.841,35.841,0,0,1-14.041,23.29A36.531,36.531,0,0,1,721.57,7948.64Zm-25.027-49.61a31.74,31.74,0,0,1,4.137-6.51,32.819,32.819,0,0,1,17.244-10.94c0.256-.07.517-0.13,0.778-0.19a0.944,0.944,0,0,1,1.024.43,0.9,0.9,0,0,1-.124,1.09,28.036,28.036,0,0,0-1.927,36.68,29.371,29.371,0,0,0,36.458,8.28,0.958,0.958,0,0,1,1.1.18,0.906,0.906,0,0,1,.145,1.09,32.717,32.717,0,0,1-20.678,15.51,33.52,33.52,0,0,1-34.528-12.1,32.445,32.445,0,0,1-6.592-16.56A32.061,32.061,0,0,1,696.543,7899.03Zm-1.108,16.8a30.568,30.568,0,0,0,6.22,15.62,31.212,31.212,0,0,0,9.3,8.12,31.829,31.829,0,0,0,23.282,3.3,30.953,30.953,0,0,0,17.878-12.08,31.329,31.329,0,0,1-35.925-10.1A29.835,29.835,0,0,1,716.2,7884a31.057,31.057,0,0,0-8.592,4.48A30.241,30.241,0,0,0,695.435,7915.83Zm0.74,16.25a2.185,2.185,0,0,0,.021,3.11,2.257,2.257,0,0,0,3.15.08,2.19,2.19,0,0,0-.023-3.12A2.244,2.244,0,0,0,696.175,7932.08Zm1.973,1.83-0.524-.23m-34.891-5.98a0.383,0.383,0,0,1-.364-0.27c-0.25-.82-0.446-1.51-0.6-2.07a6.106,6.106,0,0,0-1.037-2.59,6.68,6.68,0,0,0-2.685-1.05c-0.508-.14-1.086-0.3-1.768-0.5a0.393,0.393,0,0,1-.275-0.37,0.4,0.4,0,0,1,.268-0.38c0.76-.24,1.386-0.42,1.938-0.58a6.049,6.049,0,0,0,2.55-1.06,6.553,6.553,0,0,0,1.023-2.63c0.154-.56.346-1.25,0.589-2.07a0.382,0.382,0,0,1,.73,0c0.243,0.82.435,1.51,0.59,2.07a6.553,6.553,0,0,0,1.023,2.63,6.036,6.036,0,0,0,2.549,1.06c0.552,0.16,1.179.34,1.938,0.58a0.4,0.4,0,0,1,.269.38,0.393,0.393,0,0,1-.276.37c-0.682.2-1.259,0.36-1.768,0.5a6.694,6.694,0,0,0-2.685,1.05,6.119,6.119,0,0,0-1.037,2.59c-0.158.56-.354,1.25-0.6,2.07A0.383,0.383,0,0,1,662.733,7927.7Zm-4.424-6.88c0.154,0.04.3,0.08,0.443,0.12,2.88,0.8,2.985.91,3.773,3.72,0.064,0.23.133,0.47,0.208,0.74l0.209-.74c0.787-2.81.894-2.92,3.772-3.72,0.142-.04.289-0.08,0.443-0.12q-0.315-.1-0.6-0.18c-2.744-.81-2.845-0.92-3.63-3.76-0.061-.23-0.125-0.46-0.2-0.71-0.07.25-.135,0.48-0.2,0.71-0.784,2.84-.886,2.95-3.63,3.76C658.718,7920.69,658.52,7920.75,658.309,7920.82Zm19.307,16.47a0.379,0.379,0,0,1-.366-0.26c-0.143-.42-0.258-0.78-0.358-1.1a4.046,4.046,0,0,0-.665-1.55,3.8,3.8,0,0,0-1.554-.6c-0.331-.09-0.706-0.19-1.156-0.32a0.381,0.381,0,0,1-.012-0.73c0.528-.17.967-0.3,1.319-0.41a3.363,3.363,0,0,0,1.428-.6,4.607,4.607,0,0,0,.657-1.61c0.1-.31.205-0.66,0.339-1.08a0.393,0.393,0,0,1,.368-0.26h0.006a0.376,0.376,0,0,1,.365.28c0.126,0.43.225,0.79,0.312,1.12a4.33,4.33,0,0,0,.581,1.57,3.543,3.543,0,0,0,1.41.58c0.35,0.11.786,0.24,1.309,0.41a0.382,0.382,0,0,1-.013.73c-0.446.13-.817,0.23-1.145,0.32a3.825,3.825,0,0,0-1.539.59,3.708,3.708,0,0,0-.59,1.52c-0.091.32-.194,0.69-0.326,1.13a0.379,0.379,0,0,1-.364.27h-0.006Zm-2.646-4.22c1.881,0.52,2.022.65,2.622,2.52,0.526-1.87.658-2,2.542-2.52a0.171,0.171,0,0,1-.068-0.02c-1.822-.54-1.954-0.65-2.474-2.54-0.591,1.89-.734,2-2.543,2.54A0.225,0.225,0,0,1,674.97,7933.07Zm-0.671-18.65a1.045,1.045,0,1,1-1.068,1.04A1.05,1.05,0,0,1,674.3,7914.42Zm4.584-17.55a1.836,1.836,0,1,1-1.9,1.83A1.864,1.864,0,0,1,678.883,7896.87Zm-14.8,43.65a0.518,0.518,0,1,1-.571.51A0.543,0.543,0,0,1,664.082,7940.52Zm72.1-92.53,0.685,0.05-1.706,22.39-0.686-.05Zm6.582,12.9,0.669,0.16-2.341,10.49-0.669-.15Zm11.2-8.27,0.639,0.25-8.4,20.85-0.638-.26Zm2.385,14.25,0.592,0.35-5.406,9.31-0.592-.35Zm12.88-5.3,0.538,0.43-14.075,17.58-0.539-.42ZM767.4,7875.9l0.467,0.5-7.875,7.39-0.467-.5Zm14.714-.81,0.386,0.56-18.751,12.6-0.387-.56Zm-6.365,13.57,0.295,0.62-9.75,4.71-0.295-.62Zm14.641,4.38,0.2,0.65-21.728,6.39-0.2-.65Zm-9.8,10.67,0.093,0.68-10.736,1.57-0.093-.68Zm12.568,7.25-0.01.68-22.674-.35,0.01-.68Zm-12.587,7.28-0.115.67-10.724-1.69,0.115-.67Z" transform="translate(-656 -7848)"/>
</svg>
