<svg xmlns="http://www.w3.org/2000/svg" width="24.03" height="56.97" viewBox="0 0 24.03 56.97">
  <defs>
    <style>
      .cls-3 {
        fill: #0d3b66;
        fill-rule: evenodd;
      }
    </style>
  </defs>
   class="cls-3" d="M2118.05,7795.74l10.3-10.51v54.12a0.63,0.63,0,1,0,1.26,0v-54.12l10.29,10.51a0.634,0.634,0,0,0,.9-0.01,0.673,0.673,0,0,0,0-.9l-11.38-11.62a0.622,0.622,0,0,0-.89,0h0l-11.38,11.62a0.655,0.655,0,0,0,.02.91,0.628,0.628,0,0,0,.88,0h0Zm10.93-12.72a0.613,0.613,0,0,1,.44.19l11.38,11.62a0.655,0.655,0,0,1-.02.91,0.616,0.616,0,0,1-.87,0l-10.93-11.16-10.93,11.16a0.622,0.622,0,0,1-.89-0.01,0.653,0.653,0,0,1,0-.9l11.37-11.62A0.636,0.636,0,0,1,2128.98,7783.02Zm0,0a0.638,0.638,0,0,1,.63.65v55.68a0.63,0.63,0,1,1-1.26,0v-55.68A0.638,0.638,0,0,1,2128.98,7783.02Z" transform="translate(-2116.97 -7783.03)"/>
</svg>
