<svg xmlns="http://www.w3.org/2000/svg" width="60.125" height="63.03" viewBox="0 0 60.125 63.03">
  <defs>
    <style>
      .cls-1 {
        fill: #ba996a;
        fill-rule: evenodd;
        opacity: 0.2;
      }
    </style>
  </defs>
  <path class="cls-1" d="M701.35,5128.48a1.7,1.7,0,0,1-1.624-1.24c-1.116-3.72-1.992-6.89-2.7-9.44-1.822-6.6-2.737-9.91-4.631-11.8-1.913-1.91-5.278-2.86-11.984-4.76-2.272-.64-4.848-1.37-7.892-2.28a1.792,1.792,0,0,1-.034-3.39c3.394-1.09,6.187-1.93,8.653-2.67,6.359-1.92,9.554-2.88,11.381-4.8s2.744-5.29,4.564-11.99c0.69-2.54,1.55-5.71,2.633-9.41a1.685,1.685,0,0,1,3.256,0c1.086,3.7,1.944,6.87,2.634,9.41,1.822,6.7,2.736,10.06,4.566,11.99s5.019,2.88,11.379,4.8c2.466,0.74,5.262,1.58,8.652,2.67a1.791,1.791,0,0,1-.031,3.39c-3.044.91-5.62,1.64-7.895,2.28-6.7,1.9-10.071,2.85-11.983,4.76-1.895,1.89-2.809,5.2-4.629,11.8-0.706,2.55-1.582,5.72-2.7,9.44A1.707,1.707,0,0,1,701.35,5128.48Zm-0.875-49.29c-3.5,12.94-3.956,13.42-16.2,17.13-0.844.25-1.728,0.52-2.672,0.81,0.689,0.19,1.349.38,1.98,0.56,12.852,3.65,13.324,4.13,16.841,16.92,0.286,1.05.593,2.16,0.928,3.36,0.338-1.2.642-2.31,0.931-3.36,3.515-12.79,3.99-13.27,16.839-16.92,0.632-.18,1.29-0.37,1.979-0.56-0.941-.29-1.828-0.56-2.67-0.81-12.249-3.71-12.7-4.19-16.2-17.13" transform="translate(-671.281 -5065.44)"/>
</svg>
