<svg xmlns="http://www.w3.org/2000/svg" width="116.406" height="85.969" viewBox="0 0 116.406 85.969">
  <defs>
    <style>
      .cls-1 {
        fill: #ba996a;
        fill-rule: evenodd;
      }
    </style>
  </defs>
  <path id="Прямоугольник_5" data-name="Прямоугольник 5" class="cls-1" d="M720.669,48.778a30.6,30.6,0,1,1-30.858,30.6A30.728,30.728,0,0,1,720.669,48.778Zm0,0.443a30.154,30.154,0,1,1-30.413,30.153A30.284,30.284,0,0,1,720.669,49.221Zm-4.016,60.441a31.206,31.206,0,0,1-18.894-10.028,3.114,3.114,0,0,0,1.172-1.039,29.816,29.816,0,0,0,39.725,4.036A28.954,28.954,0,0,0,749.4,86.639a22.825,22.825,0,0,1-2.457,2.11,23.472,23.472,0,0,1-32.507-4.616A22.6,22.6,0,0,1,718.861,52.1a23.068,23.068,0,0,1,2.74-1.747,29.435,29.435,0,0,0-18.58,5.771,28.633,28.633,0,0,0-7.385,38.033,3.316,3.316,0,0,0-1.46.621,30.17,30.17,0,0,1,7.89-39.9,30.766,30.766,0,0,1,10.727-5.11,31.255,31.255,0,0,1,11.924-.715,0.794,0.794,0,0,1,.685.68,0.773,0.773,0,0,1-.492.819,21.509,21.509,0,0,0-5.092,2.8A21.057,21.057,0,0,0,715.693,83.2a21.87,21.87,0,0,0,30.292,4.3,21.167,21.167,0,0,0,4.135-4.049,0.794,0.794,0,0,1,.936-0.24,0.784,0.784,0,0,1,.475.837,30.537,30.537,0,0,1-11.918,19.831A30.964,30.964,0,0,1,716.653,109.661ZM695.411,67.435a27.166,27.166,0,0,1,3.511-5.539,27.882,27.882,0,0,1,14.636-9.316c0.218-.055.44-0.11,0.661-0.161a0.8,0.8,0,0,1,.869.372,0.765,0.765,0,0,1-.105.925,23.906,23.906,0,0,0-1.635,31.222,24.9,24.9,0,0,0,30.943,7.049,0.807,0.807,0,0,1,.934.153,0.772,0.772,0,0,1,.123.928,27.775,27.775,0,0,1-17.551,13.2,28.42,28.42,0,0,1-29.305-10.3A27.432,27.432,0,0,1,695.411,67.435Zm-0.94,14.3A26.046,26.046,0,0,0,699.75,95.03a26.521,26.521,0,0,0,7.9,6.915,27,27,0,0,0,19.76,2.806,26.216,26.216,0,0,0,15.175-10.283,26.537,26.537,0,0,1-30.492-8.6,25.442,25.442,0,0,1,.008-31.229,26.306,26.306,0,0,0-11.942,8.237A25.944,25.944,0,0,0,694.471,81.737ZM695.1,95.565a1.866,1.866,0,0,0,.017,2.649,1.909,1.909,0,0,0,2.674.065,1.862,1.862,0,0,0-.02-2.652A1.9,1.9,0,0,0,695.1,95.565Zm1.674,1.56-0.444-.195m-29.614-5.088a0.325,0.325,0,0,1-.309-0.232c-0.212-.7-0.379-1.289-0.512-1.766a5.267,5.267,0,0,0-.881-2.206,5.658,5.658,0,0,0-2.279-.89c-0.432-.12-0.922-0.257-1.5-0.427a0.333,0.333,0,0,1-.007-0.634c0.645-.2,1.177-0.362,1.646-0.5a5.24,5.24,0,0,0,2.164-.9,5.653,5.653,0,0,0,.868-2.243c0.131-.475.294-1.067,0.5-1.759a0.322,0.322,0,0,1,.619,0c0.207,0.692.37,1.284,0.5,1.759a5.637,5.637,0,0,0,.868,2.243,5.24,5.24,0,0,0,2.164.9c0.469,0.139,1,.3,1.645.5a0.333,0.333,0,0,1-.006.634c-0.579.17-1.068,0.307-1.5,0.427a5.665,5.665,0,0,0-2.279.89,5.256,5.256,0,0,0-.88,2.206c-0.134.476-.3,1.069-0.512,1.766A0.325,0.325,0,0,1,666.715,91.843ZM662.96,85.98l0.376,0.1c2.444,0.683,2.534.772,3.2,3.164,0.055,0.2.113,0.4,0.177,0.628,0.064-.224.122-0.432,0.177-0.628,0.668-2.392.758-2.481,3.2-3.164l0.376-.1-0.508-.152c-2.329-.692-2.415-0.782-3.081-3.2-0.052-.189-0.106-0.388-0.166-0.6-0.06.214-.115,0.413-0.167,0.6-0.665,2.42-.752,2.51-3.081,3.2ZM679.347,100a0.327,0.327,0,0,1-.311-0.223c-0.121-.361-0.219-0.665-0.3-0.933a3.511,3.511,0,0,0-.564-1.326,3.338,3.338,0,0,0-1.319-.5c-0.281-.077-0.6-0.164-0.981-0.277a0.323,0.323,0,0,1-.011-0.619c0.449-.148.821-0.261,1.12-0.35a2.962,2.962,0,0,0,1.212-.508,3.965,3.965,0,0,0,.558-1.376c0.081-.261.174-0.563,0.288-0.915a0.326,0.326,0,0,1,.312-0.225h0a0.328,0.328,0,0,1,.31.236c0.106,0.369.191,0.679,0.265,0.953a3.631,3.631,0,0,0,.493,1.336,2.9,2.9,0,0,0,1.2.5c0.3,0.089.668,0.2,1.111,0.348a0.324,0.324,0,0,1-.01.619c-0.379.111-.694,0.2-0.973,0.274a3.319,3.319,0,0,0-1.306.5,3.25,3.25,0,0,0-.5,1.294c-0.078.277-.165,0.589-0.277,0.965a0.329,0.329,0,0,1-.309.232h0Zm-2.246-3.59c1.6,0.44,1.716.551,2.226,2.144,0.446-1.59.558-1.7,2.157-2.144l-0.058-.018c-1.546-.466-1.659-0.559-2.1-2.168-0.5,1.608-.624,1.7-2.159,2.165Zm-0.568-15.888a0.9,0.9,0,1,1-.9.9A0.9,0.9,0,0,1,676.533,80.525Zm3.887-14.944a1.566,1.566,0,1,1-1.617,1.566A1.592,1.592,0,0,1,680.42,65.581Zm-12.566,37.153a0.444,0.444,0,1,1-.475.443A0.46,0.46,0,0,1,667.854,102.734Zm61.2-78.74,0.582,0.044-1.449,19.057-0.581-.044Zm5.587,10.98,0.568,0.133-1.987,8.932-0.568-.133Zm9.509-7.044,0.542,0.215-7.127,17.743-0.541-.215Zm2.024,12.132,0.5,0.3-4.588,7.927-0.5-.3Zm10.932-4.507,0.457,0.361L745.616,50.881l-0.457-.361Zm-1.558,12.194,0.4,0.426-6.684,6.287-0.4-.426Zm12.488-.689,0.328,0.48L752.448,58.26l-0.328-.48Zm-5.4,11.552,0.25,0.523-8.275,4.009-0.251-.524Zm12.426,3.724,0.167,0.555-18.442,5.437-0.167-.555Zm-8.321,9.089L766.818,72l-9.113,1.335-0.079-.574Zm10.666,6.165-0.008.579-19.245-.3,0.009-.579Zm-10.683,6.194-0.1.57-9.1-1.434,0.1-.571Z" transform="translate(-661 -24)"/>
</svg>
