<svg id="лого" xmlns="http://www.w3.org/2000/svg" width="376" height="85.969" viewBox="0 0 376 85.969">
  <defs>
    <style>
      .cls-1 {
        fill: #003153;
      }

      .cls-1, .cls-2, .cls-3 {
        fill-rule: evenodd;
      }

      .cls-2 {
        fill: #d1d1d1;
      }

      .cls-3 {
        fill: #ba996a;
      }
    </style>
  </defs>
  <path class="cls-1" d="M1026.27,67.247h-3.69V80.041h-3.97v-28.9h7.66c6.42,0,10.73,3.237,10.73,8.054S1032.69,67.247,1026.27,67.247Zm-0.58-15.492h-3.11V66.631h3.11c4.24,0,7.07-3.006,7.07-7.437C1032.76,54.722,1029.93,51.755,1025.69,51.755Zm-47.922,51.051h-1.106l-1.336,2.7h-0.539l1.4-2.747a1.574,1.574,0,0,1-1.3-1.6v-0.345a1.632,1.632,0,0,1,1.784-1.651h1.61v6.348h-0.513v-2.7Zm0-3.21H976.68a1.164,1.164,0,0,0-1.281,1.178v0.418a1.166,1.166,0,0,0,1.281,1.188h1.088V99.6Zm12.28-48.457h14.922v0.616H994.013V64.434h9.177v0.617h-9.177V79.424h11.237v0.617h-15.2v-28.9Zm-32.335,52.782h-2.378l-0.457,1.587h-0.531l1.9-6.348H956.8l1.912,6.348h-0.54Zm-1.189-4.1-1.061,3.663h2.122Zm-6.163,5.685h-1.7V99.16h1.5a1.542,1.542,0,0,1,1.784,1.406v0.39a1.333,1.333,0,0,1-.878,1.243,1.47,1.47,0,0,1,1.079,1.424v0.353A1.585,1.585,0,0,1,950.361,105.508Zm1.07-4.507v-0.417a1.1,1.1,0,0,0-1.29-.988h-0.96v2.412h0.96A1.1,1.1,0,0,0,951.431,101Zm0.2,2.567a1.149,1.149,0,0,0-1.29-1.125h-1.161v2.63h1.161a1.137,1.137,0,0,0,1.29-1.115v-0.39Zm9.85-52.429h14.926v0.616H965.447V64.434h9.173v0.617h-9.173V79.424H976.68v0.617h-15.2v-28.9ZM932.985,99.6H931.3v5.912H930.79V99.6h-1.674V99.16h3.869V99.6Zm-8.175,5.976a1.676,1.676,0,0,1-1.83-1.651v-3.174a1.834,1.834,0,0,1,3.65,0v0.327h-0.513v-0.363a1.315,1.315,0,0,0-2.615,0v3.247a1.314,1.314,0,0,0,2.615-.01V103.6h0.513v0.317A1.672,1.672,0,0,1,924.81,105.572Zm-6.457-2.766h-1.134v2.7H916.7V99.16h1.655a1.632,1.632,0,0,1,1.784,1.651v0.345A1.632,1.632,0,0,1,918.353,102.806Zm1.272-2.032a1.165,1.165,0,0,0-1.281-1.178h-1.125v2.784h1.125a1.167,1.167,0,0,0,1.281-1.188v-0.418Zm14.029-49.635h3.964V79.424h11.428v0.617H933.654v-28.9ZM889.7,58.73c0,4.471-3.887,7.515-9.795,7.707l12.088,13.6h-4.664l-11.972-13.6h-0.077v13.6h-3.965v-28.9h7.968C885.538,51.139,889.7,54.183,889.7,58.73Zm-14.42-6.975V65.821h3.42c4.042,0,6.763-2.852,6.763-7.091,0-4.2-2.721-6.975-6.763-6.975h-3.42Zm-32.251,49.056v0.345a1.631,1.631,0,0,1-1.784,1.65h-1.134v2.7h-0.521V99.16h1.655A1.632,1.632,0,0,1,843.026,100.811ZM840.108,99.6v2.784h1.126a1.166,1.166,0,0,0,1.28-1.188v-0.418a1.164,1.164,0,0,0-1.28-1.178h-1.126Zm-5.431,5.976a1.676,1.676,0,0,1-1.83-1.651v-3.174a1.834,1.834,0,0,1,3.65,0v3.174A1.672,1.672,0,0,1,834.677,105.572Zm1.308-4.861a1.315,1.315,0,0,0-2.616,0v3.247a1.315,1.315,0,0,0,2.616-.01v-3.237Zm-7.262,4.8h-0.512V99.6h-1.674V99.16h3.869V99.6h-1.683v5.912Zm13.634-25.082c-8.978,0-14.964-5.935-14.964-14.837s5.986-14.836,14.964-14.836a15.254,15.254,0,0,1,10.494,3.714c4.642,4.154,4.51,12,4.51,11.122C857.361,74.492,851.375,80.426,842.357,80.426Zm0-29.056c-6.452,0-10.728,5.7-10.728,14.219s4.276,14.22,10.728,14.22,10.767-5.7,10.767-14.22S848.81,51.37,842.357,51.37ZM797.584,99.16l1.912,6.348h-0.539l-0.458-1.587h-2.378l-0.457,1.587h-0.531l1.9-6.348h0.548Zm0.787,4.326-1.061-3.663-1.061,3.663h2.122Zm-6.319-3.89h-2.2V100c0,5.123-.238,5.577-1.491,5.577h-0.073v-0.435h0.073c0.741,0,1.006-.218,1.006-5.142V99.16h3.192v6.348h-0.512V99.6Zm7.4-19.555h-9.756v-28.9h9.756c9.406,0,15.742,5.78,15.742,14.451S808.855,80.041,799.449,80.041Zm-0.583-28.286h-5.209V79.424h5.209c7.23,0,12.089-5.549,12.089-13.835S806.1,51.755,798.866,51.755Zm6.2,47.84h-2.479v2.23h1.18a1.618,1.618,0,0,1,1.766,1.652v0.38a1.616,1.616,0,0,1-1.766,1.65h-1.7V99.16h3V99.6Zm-2.479,5.477h1.171a1.155,1.155,0,0,0,1.263-1.179v-0.453a1.155,1.155,0,0,0-1.263-1.179h-1.171v2.811Zm7.628-5.976a1.672,1.672,0,0,1,1.82,1.65v3.174a1.834,1.834,0,0,1-3.65,0v-3.174A1.676,1.676,0,0,1,810.214,99.1Zm-1.308,4.861a1.315,1.315,0,0,0,2.616-.01v-3.237a1.315,1.315,0,0,0-2.616,0v3.247Zm9.657-3.147v0.345a1.631,1.631,0,0,1-1.783,1.65h-1.135v2.7h-0.521V99.16h1.656A1.631,1.631,0,0,1,818.563,100.811ZM815.645,99.6v2.784h1.126a1.166,1.166,0,0,0,1.28-1.188v-0.418a1.164,1.164,0,0,0-1.28-1.178h-1.126Zm7.3-.436,1.912,6.348h-0.54l-0.457-1.587H821.48l-0.458,1.587h-0.53l1.9-6.348h0.548Zm0.787,4.326-1.061-3.663-1.061,3.663h2.122Zm22.734,0.961,2.717-5.287h0.448v6.348h-0.521v-5.3l-2.708,5.3h-0.457V99.16h0.521v5.287Zm6.246-3.291v-0.345a1.632,1.632,0,0,1,1.784-1.651h1.61v6.348h-0.513v-2.7h-1.106l-1.336,2.7h-0.54l1.4-2.747A1.574,1.574,0,0,1,852.71,101.156Zm1.793,1.224h1.088V99.6H854.5a1.165,1.165,0,0,0-1.281,1.178v0.418A1.167,1.167,0,0,0,854.5,102.38ZM864.535,99.1a1.672,1.672,0,0,1,1.82,1.65v0.327h-0.512v-0.363a1.315,1.315,0,0,0-2.616,0v3.247a1.315,1.315,0,0,0,2.616-.01V103.6h0.512v0.317a1.834,1.834,0,0,1-3.65,0v-3.174A1.676,1.676,0,0,1,864.535,99.1Zm5.34,3.038h2.644V99.16h0.5v6.348h-0.5V102.57h-2.644v2.938h-0.521V99.16h0.521v2.975ZM902.21,75.763a10.181,10.181,0,0,0,7.7,3.7c3.692,0,6.258-2.351,6.258-5.973,0-8.093-13.138-6.551-13.138-15.453,0-4.509,3.3-7.283,7.89-7.283a11.069,11.069,0,0,1,7.929,3.237l-0.31.347a9.725,9.725,0,0,0-6.375-2.621,4.887,4.887,0,0,0-5.208,5.048c0,7.554,13.176,6.127,13.176,15.53,0,5.164-4,8.131-9.056,8.131a11.845,11.845,0,0,1-9.251-4.239Zm-24.159,23.4,1.912,6.348h-0.54l-0.457-1.587h-2.378l-0.458,1.587H875.6l1.9-6.348h0.548Zm0.787,4.326-1.061-3.663-1.061,3.663h2.122Zm7.745,0.961L889.3,99.16h0.448v6.348h-0.521v-5.3l-2.708,5.3h-0.457V99.16h0.521v5.287ZM899.442,99.6h-2.479v2.23h1.18a1.617,1.617,0,0,1,1.765,1.652v0.38a1.615,1.615,0,0,1-1.765,1.65h-1.7V99.16h3V99.6Zm-2.479,5.477h1.171a1.154,1.154,0,0,0,1.262-1.179v-0.453a1.154,1.154,0,0,0-1.262-1.179h-1.171v2.811ZM904.59,99.1a1.672,1.672,0,0,1,1.82,1.65v3.174a1.834,1.834,0,0,1-3.65,0v-3.174A1.676,1.676,0,0,1,904.59,99.1Zm-1.308,4.861a1.315,1.315,0,0,0,2.616-.01v-3.237a1.315,1.315,0,0,0-2.616,0v3.247ZM910.049,100V99.16h3.165v5.913h0.823v1.769h-0.512v-1.334h-4.18v1.334h-0.512v-1.769h0.576C909.72,104.729,910.049,103.986,910.049,100Zm2.653,5.078V99.6h-2.168V100c0,3.365-.174,4.579-0.631,5.078h2.8Zm26.219-4.507v0.39a1.334,1.334,0,0,1-.879,1.243,1.471,1.471,0,0,1,1.08,1.424v0.353a1.586,1.586,0,0,1-1.784,1.532h-1.7V99.16h1.5A1.543,1.543,0,0,1,938.921,100.566Zm-2.763,4.507h1.162a1.137,1.137,0,0,0,1.29-1.115v-0.39a1.149,1.149,0,0,0-1.29-1.125h-1.162v2.63Zm0-5.477v2.412h0.961A1.1,1.1,0,0,0,938.408,101v-0.417a1.1,1.1,0,0,0-1.289-.988h-0.961Zm7.591-.5a1.672,1.672,0,0,1,1.82,1.65v3.174a1.834,1.834,0,0,1-3.65,0v-3.174A1.676,1.676,0,0,1,943.749,99.1Zm-1.308,4.861a1.315,1.315,0,0,0,2.616-.01v-3.237a1.315,1.315,0,0,0-2.616,0v3.247Zm19.36-1.823h2.643V99.16h0.5v6.348h-0.5V102.57H961.8v2.938h-0.522V99.16H961.8v2.975Zm6.84,2.312,2.717-5.287h0.448v6.348h-0.521v-5.3l-2.708,5.3H968.12V99.16h0.521v5.287Z" transform="translate(-661 -24)"/>
  <path class="cls-2" d="M720.669,48.778a30.6,30.6,0,1,1-30.858,30.6A30.728,30.728,0,0,1,720.669,48.778Zm0,0.443a30.154,30.154,0,1,1-30.413,30.153A30.284,30.284,0,0,1,720.669,49.221Z" transform="translate(-661 -24)"/>
  <path class="cls-1" d="M716.653,109.661a31.206,31.206,0,0,1-18.894-10.028,3.114,3.114,0,0,0,1.172-1.039,29.816,29.816,0,0,0,39.725,4.036A28.954,28.954,0,0,0,749.4,86.639a22.825,22.825,0,0,1-2.457,2.11,23.472,23.472,0,0,1-32.507-4.616A22.6,22.6,0,0,1,718.861,52.1a23.068,23.068,0,0,1,2.74-1.747,29.435,29.435,0,0,0-18.58,5.771,28.633,28.633,0,0,0-7.385,38.033,3.316,3.316,0,0,0-1.46.621,30.17,30.17,0,0,1,7.89-39.9,30.766,30.766,0,0,1,10.727-5.11,31.255,31.255,0,0,1,11.924-.715,0.794,0.794,0,0,1,.685.68,0.773,0.773,0,0,1-.492.819,21.509,21.509,0,0,0-5.092,2.8A21.057,21.057,0,0,0,715.693,83.2a21.87,21.87,0,0,0,30.292,4.3,21.167,21.167,0,0,0,4.135-4.049,0.794,0.794,0,0,1,.936-0.24,0.784,0.784,0,0,1,.475.837,30.537,30.537,0,0,1-11.918,19.831A30.964,30.964,0,0,1,716.653,109.661ZM695.411,67.435a27.166,27.166,0,0,1,3.511-5.539,27.882,27.882,0,0,1,14.636-9.316c0.218-.055.44-0.11,0.661-0.161a0.8,0.8,0,0,1,.869.372,0.765,0.765,0,0,1-.105.925,23.906,23.906,0,0,0-1.635,31.222,24.9,24.9,0,0,0,30.943,7.049,0.807,0.807,0,0,1,.934.153,0.772,0.772,0,0,1,.123.928,27.775,27.775,0,0,1-17.551,13.2,28.42,28.42,0,0,1-29.305-10.3A27.432,27.432,0,0,1,695.411,67.435Zm-0.94,14.3A26.046,26.046,0,0,0,699.75,95.03a26.521,26.521,0,0,0,7.9,6.915,27,27,0,0,0,19.76,2.806,26.216,26.216,0,0,0,15.175-10.283,26.537,26.537,0,0,1-30.492-8.6,25.442,25.442,0,0,1,.008-31.229,26.306,26.306,0,0,0-11.942,8.237A25.944,25.944,0,0,0,694.471,81.737Z" transform="translate(-661 -24)"/>
  <path class="cls-3" d="M695.1,95.565a1.866,1.866,0,0,0,.017,2.649,1.909,1.909,0,0,0,2.674.065,1.862,1.862,0,0,0-.02-2.652A1.9,1.9,0,0,0,695.1,95.565Zm1.674,1.56-0.444-.195m-29.614-5.088a0.325,0.325,0,0,1-.309-0.232c-0.212-.7-0.379-1.289-0.512-1.766a5.267,5.267,0,0,0-.881-2.206,5.658,5.658,0,0,0-2.279-.89c-0.432-.12-0.922-0.257-1.5-0.427a0.333,0.333,0,0,1-.007-0.634c0.645-.2,1.177-0.362,1.646-0.5a5.24,5.24,0,0,0,2.164-.9,5.653,5.653,0,0,0,.868-2.243c0.131-.475.294-1.067,0.5-1.759a0.322,0.322,0,0,1,.619,0c0.207,0.692.37,1.284,0.5,1.759a5.637,5.637,0,0,0,.868,2.243,5.24,5.24,0,0,0,2.164.9c0.469,0.139,1,.3,1.645.5a0.333,0.333,0,0,1-.006.634c-0.579.17-1.068,0.307-1.5,0.427a5.665,5.665,0,0,0-2.279.89,5.256,5.256,0,0,0-.88,2.206c-0.134.476-.3,1.069-0.512,1.766A0.325,0.325,0,0,1,666.715,91.843ZM662.96,85.98l0.376,0.1c2.444,0.683,2.534.772,3.2,3.164,0.055,0.2.113,0.4,0.177,0.628,0.064-.224.122-0.432,0.177-0.628,0.668-2.392.758-2.481,3.2-3.164l0.376-.1-0.508-.152c-2.329-.692-2.415-0.782-3.081-3.2-0.052-.189-0.106-0.388-0.166-0.6-0.06.214-.115,0.413-0.167,0.6-0.665,2.42-.752,2.51-3.081,3.2ZM679.347,100a0.327,0.327,0,0,1-.311-0.223c-0.121-.361-0.219-0.665-0.3-0.933a3.511,3.511,0,0,0-.564-1.326,3.338,3.338,0,0,0-1.319-.5c-0.281-.077-0.6-0.164-0.981-0.277a0.323,0.323,0,0,1-.011-0.619c0.449-.148.821-0.261,1.12-0.35a2.962,2.962,0,0,0,1.212-.508,3.965,3.965,0,0,0,.558-1.376c0.081-.261.174-0.563,0.288-0.915a0.326,0.326,0,0,1,.312-0.225h0a0.328,0.328,0,0,1,.31.236c0.106,0.369.191,0.679,0.265,0.953a3.631,3.631,0,0,0,.493,1.336,2.9,2.9,0,0,0,1.2.5c0.3,0.089.668,0.2,1.111,0.348a0.324,0.324,0,0,1-.01.619c-0.379.111-.694,0.2-0.973,0.274a3.319,3.319,0,0,0-1.306.5,3.25,3.25,0,0,0-.5,1.294c-0.078.277-.165,0.589-0.277,0.965a0.329,0.329,0,0,1-.309.232h0Zm-2.246-3.59c1.6,0.44,1.716.551,2.226,2.144,0.446-1.59.558-1.7,2.157-2.144l-0.058-.018c-1.546-.466-1.659-0.559-2.1-2.168-0.5,1.608-.624,1.7-2.159,2.165Zm-0.568-15.888a0.9,0.9,0,1,1-.9.9A0.9,0.9,0,0,1,676.533,80.525Zm3.887-14.944a1.566,1.566,0,1,1-1.617,1.566A1.592,1.592,0,0,1,680.42,65.581Zm-12.566,37.153a0.444,0.444,0,1,1-.475.443A0.46,0.46,0,0,1,667.854,102.734Zm61.2-78.74,0.582,0.044-1.449,19.057-0.581-.044Zm5.587,10.98,0.568,0.133-1.987,8.932-0.568-.133Zm9.509-7.044,0.542,0.215-7.127,17.743-0.541-.215Zm2.024,12.132,0.5,0.3-4.588,7.927-0.5-.3Zm10.932-4.507,0.457,0.361L745.616,50.881l-0.457-.361Zm-1.558,12.194,0.4,0.426-6.684,6.287-0.4-.426Zm12.488-.689,0.328,0.48L752.448,58.26l-0.328-.48Zm-5.4,11.552,0.25,0.523-8.275,4.009-0.251-.524Zm12.426,3.724,0.167,0.555-18.442,5.437-0.167-.555Zm-8.321,9.089L766.818,72l-9.113,1.335-0.079-.574Zm10.666,6.165-0.008.579-19.245-.3,0.009-.579Zm-10.683,6.194-0.1.57-9.1-1.434,0.1-.571Z" transform="translate(-661 -24)"/>
</svg>
