<svg xmlns="http://www.w3.org/2000/svg" width="40" height="40.19" viewBox="0 0 40 40.19">
  <defs>
    <style>
      .cls-1 {
        fill: #003153;
        fill-rule: evenodd;
      }
    </style>
  </defs>
  <path id="Фигура_15_копия_2" data-name="Фигура 15 копия 2" class="cls-1" d="M679,4547.09a13.345,13.345,0,1,1,13.281-13.35v0.01A13.329,13.329,0,0,1,679,4547.09h0Zm0-23.55a10.205,10.205,0,1,0,10.156,10.21v-0.01A10.192,10.192,0,0,0,679,4523.54h0Zm-1.875-7.77a1.953,1.953,0,1,0,1.953-1.96,1.958,1.958,0,0,0-1.953,1.96h0Zm0,36.27a1.953,1.953,0,1,0,1.953-1.97,1.958,1.958,0,0,0-1.953,1.97h0Zm-16.172-16.18A1.96,1.96,0,1,0,659,4533.9a1.951,1.951,0,0,0,1.953,1.96h0Zm36.094,0a1.96,1.96,0,1,0-1.954-1.96,1.952,1.952,0,0,0,1.954,1.96h0Zm-28.672-17.82a1.953,1.953,0,1,0,1.953-1.96,1.96,1.96,0,0,0-1.953,1.96h0Zm-6.953,6.76a1.953,1.953,0,1,0,1.953-1.97,1.958,1.958,0,0,0-1.953,1.97h0Zm0,18.21a1.953,1.953,0,1,0,1.953-1.96,1.958,1.958,0,0,0-1.953,1.96h0Zm6.953,6.83a1.953,1.953,0,1,0,1.953-1.96,1.958,1.958,0,0,0-1.953,1.96h0Zm24.3-6.83a1.953,1.953,0,1,0,1.953-1.96,1.958,1.958,0,0,0-1.953,1.96h0Zm-6.875,6.75a1.953,1.953,0,1,0,1.953-1.96,1.958,1.958,0,0,0-1.953,1.96h0Zm1.953-33.68a1.965,1.965,0,1,1-1.953,1.96,1.958,1.958,0,0,1,1.953-1.96h0Zm4.922,8.72a1.953,1.953,0,1,0,1.953-1.97,1.958,1.958,0,0,0-1.953,1.97h0Zm0,0" transform="translate(-659 -4513.81)"/>
</svg>
