<svg xmlns="http://www.w3.org/2000/svg" width="23.65" height="23.65" viewBox="0 0 23.65 23.65">
  <defs>
    <style>
      .cls-1 {
        fill: #bde0eb;
        fill-rule: evenodd;
      }
    </style>
  </defs>
  <path id="Фигура_17" data-name="Фигура 17" class="cls-1" d="M1119.44,8133.94h-8.87a7.392,7.392,0,0,0-7.39,7.39v8.88a7.392,7.392,0,0,0,7.39,7.39h8.87a7.394,7.394,0,0,0,7.4-7.39v-8.88A7.394,7.394,0,0,0,1119.44,8133.94Zm5.18,16.27a5.179,5.179,0,0,1-5.18,5.17h-8.87a5.177,5.177,0,0,1-5.17-5.17v-8.88a5.177,5.177,0,0,1,5.17-5.17h8.87a5.179,5.179,0,0,1,5.18,5.17v8.88Zm-9.61-10.35a5.915,5.915,0,1,0,5.91,5.91A5.911,5.911,0,0,0,1115.01,8139.86Zm0,9.61a3.7,3.7,0,1,1,3.69-3.7A3.7,3.7,0,0,1,1115.01,8149.47Zm6.36-10.85a0.79,0.79,0,1,1-.79.79A0.79,0.79,0,0,1,1121.37,8138.62Z" transform="translate(-1103.19 -8133.94)"/>
</svg>
