<svg xmlns="http://www.w3.org/2000/svg" width="68.72" height="97.06" viewBox="0 0 68.72 97.06">
  <defs>
    <style>
      .cls-1 {
        fill: #fff;
        fill-rule: evenodd;
        opacity: 0.4;
      }
    </style>
  </defs>
  <path id="Эллипс_6_копия_4" data-name="Эллипс 6 копия 4" class="cls-1" d="M1685.99,1938.22a47.255,47.255,0,0,1,10.71-3.86,48.289,48.289,0,0,1,11.78-1.18,48.79,48.79,0,0,1,18.32,4.01c0.36,0.15.73,0.32,1.09,0.48a1.405,1.405,0,0,1,.81,1.44,1.337,1.337,0,0,1-1.13,1.16,41.183,41.183,0,0,0-35.28,41.09,43.726,43.726,0,0,0,35.36,42.67,1.436,1.436,0,0,1,1.13,1.21,1.338,1.338,0,0,1-.81,1.4,48.5,48.5,0,0,1-38.24-.61,50.323,50.323,0,0,1-25.83-26.4,48.9,48.9,0,0,1-3.82-18.98,47.6,47.6,0,0,1,7.16-25.3A47.034,47.034,0,0,1,1685.99,1938.22Z" transform="translate(-1660.06 -1933.19)"/>
</svg>
